Patient4_TMGait_0pt6_02_left_14_GRF.mot
version=1
nRows=65
nColumns=19
inDegrees=no
endheader
time	F1x	F1y	F1z	M1x	M1y	M1z	F2x	F2y	F2z	M2x	M2y	M2z	EC1x	EC1y	EC1z	EC2x	EC2y	EC2z
17.21	-5.1782	10.2686	-9.4433	-1.2719	6.8834	28.0997	-28.0145	735.8067	-46.8212	282.6893	59.8475	742.5438	-0.0592	0.0182	-0.0073	-0.0462	0.0165	0.9585
17.2221	-3.7077	7.5871	-6.4034	-1.1073	4.5356	19.6218	-24.8893	736.1298	-46.7785	283.2472	58.1802	741.5671	-0.0592	0.0182	-0.0073	-0.0462	0.0165	0.9585
17.2341	-2.4553	5.3283	-3.8067	-0.98039	2.5361	12.4689	-22.1185	738.6349	-46.733	284.5245	56.6093	742.1162	-0.0592	0.0182	-0.0073	-0.0462	0.0165	0.9585
17.2462	-1.4641	3.6095	-1.8147	-0.89373	1.0207	7.0073	-19.8362	743.3145	-46.7365	286.485	55.2676	744.2425	-0.0592	0.0182	-0.0073	-0.0462	0.0165	0.9585
17.2583	-0.80178	2.4623	-0.43621	-0.84976	-0.024445	3.3043	-18.0353	749.7035	-46.8143	288.9428	54.198	747.6099	-0.0592	0.0182	-0.0073	-0.0462	0.0165	0.9585
17.2704	-0.37497	1.7804	0.41979	-0.8316	-0.66161	1.0427	-16.6259	757.0627	-47.0119	291.6188	53.4205	751.6281	-0.0592	0.0182	-0.0073	-0.0462	0.0165	0.9585
17.2824	-0.18283	1.4537	0.87494	-0.82607	-1.0039	-0.082997	-15.4724	764.5096	-47.3363	294.1887	52.8929	755.5488	-0.0592	0.0182	-0.0073	-0.0462	0.0165	0.9585
17.2945	-0.12654	1.3036	1.062	-0.80495	-1.1461	-0.52547	-14.4392	771.1151	-47.7861	296.317	52.5574	758.5541	-0.0592	0.0182	-0.0073	-0.0462	0.0165	0.9585
17.3066	-0.19193	1.1873	1.0943	-0.74089	-1.1888	-0.60981	-13.3642	776.048	-48.3269	297.7097	52.3141	759.8931	-0.0592	0.0182	-0.0073	-0.0462	0.0165	0.9585
17.3186	-0.30908	0.92908	1.0574	-0.59436	-1.1923	-0.71207	-12.1197	778.6756	-48.8986	298.1499	52.0501	758.9793	-0.0592	0.0182	-0.0073	-0.0462	0.0165	0.9585
17.3307	-0.46954	0.3958	1.0097	-0.32881	-1.2072	-1.0669	-10.6019	778.6187	-49.4318	297.5174	51.6556	755.4595	-0.0592	0.0182	-0.0073	-0.0462	0.0165	0.9585
17.3428	-0.60619	-0.55777	0.98059	0.096624	-1.236	-1.904	-8.742	775.7994	-49.8332	295.801	51.0156	749.2695	-0.0592	0.0182	-0.0073	-0.0462	0.0165	0.9585
17.3549	-0.68603	-2.0037	0.98242	0.70386	-1.2736	-3.324	-6.5625	770.3735	-50.0641	293.0753	50.0983	740.5823	-0.0592	0.0182	-0.0073	-0.0462	0.0165	0.9585
17.3669	-0.64218	-3.9321	1.0007	1.4837	-1.2764	-5.3369	-4.1139	762.7728	-50.1119	289.5139	48.9125	729.8311	-0.0592	0.0182	-0.0073	-0.0462	0.0165	0.9585
17.379	-0.3941	-6.1883	1.0071	2.3749	-1.1825	-7.7637	-1.4811	753.7177	-50.0435	285.3924	47.5475	717.7226	-0.0592	0.0182	-0.0073	-0.0462	0.0165	0.9585
17.3911	0.12786	-8.4003	0.94332	3.2324	-0.89616	-10.1804	1.2661	744.1201	-49.9371	281.0615	46.0926	705.111	-0.0592	0.0182	-0.0073	-0.0462	0.0165	0.9585
17.4031	1.0214	-9.9088	0.73747	3.801	-0.30324	-11.8352	4.0627	734.9746	-49.9223	276.8968	44.6847	692.937	-0.0592	0.0182	-0.0073	-0.0462	0.0165	0.9585
17.4152	2.3368	-9.6726	0.28801	3.6775	0.72867	-11.5427	6.8941	727.0988	-50.0726	273.2109	43.3976	681.9537	-0.0592	0.0182	-0.0073	-0.0462	0.0165	0.9585
17.4273	4.1178	-6.254	-0.49972	2.2968	2.3178	-7.7073	9.752	720.9896	-50.449	270.1915	42.2933	672.6295	-0.0592	0.0182	-0.0073	-0.0462	0.0165	0.9585
17.4394	6.2404	2.1922	-1.722	-1.0657	4.5297	1.7755	12.6876	716.6439	-51.0384	267.8421	41.3449	664.9448	-0.0592	0.0182	-0.0073	-0.0462	0.0165	0.9585
17.4514	8.4852	17.7467	-3.422	-7.2299	7.3196	19.2596	15.7142	713.5256	-51.7897	265.9663	40.5067	658.4248	-0.0592	0.0182	-0.0073	-0.0462	0.0165	0.9585
17.4635	10.3173	42.4606	-5.5629	-16.9936	10.4372	47.0901	18.83	710.5623	-52.5623	264.1766	39.6612	652.1089	-0.0592	0.0182	-0.0073	-0.0462	0.0165	0.9585
17.4756	10.9656	77.7095	-7.9498	-30.8904	13.3471	86.807	21.9239	706.2741	-53.1565	261.9366	38.6754	644.718	-0.0592	0.0182	-0.0073	-0.0462	0.0165	0.9585
17.4876	9.3204	123.4611	-10.1781	-48.886	15.1615	138.4111	24.8499	698.8992	-53.308	258.6124	37.3804	634.7313	-0.0592	0.0182	-0.0073	-0.0462	0.0165	0.9585
17.4997	4.4104	177.2248	-11.6389	-69.9788	14.7997	199.0579	27.4272	686.6603	-52.7322	253.5658	35.6059	620.6405	-0.0592	0.0182	-0.0073	-0.0462	0.0165	0.9585
17.5118	-3.7158	233.5339	-11.4151	-91.9739	11.2578	262.5496	29.5083	668.0626	-51.2063	246.2622	33.2321	601.1893	-0.0592	0.0182	-0.0073	-0.0462	0.0165	0.9585
17.5239	-12.9071	285.2593	-8.4203	-112.0284	4.2057	320.6988	30.9886	642.1926	-48.6444	236.38	30.2429	575.6186	-0.0592	0.0182	-0.0073	-0.0462	0.0165	0.9585
17.5359	-21.1252	327.4017	-2.8721	-128.2029	-5.2366	367.6176	31.8296	609.0373	-45.1558	223.9139	26.7619	543.963	-0.0592	0.0182	-0.0073	-0.0462	0.0165	0.9585
17.548	-27.1141	359.4216	4.0567	-140.3253	-15.3033	402.4848	32.0936	569.4343	-41.0159	209.1569	23.0043	506.9779	-0.0592	0.0182	-0.0073	-0.0462	0.0165	0.9585
17.5601	-30.4533	383.3185	11.3558	-149.2471	-24.6802	427.608	31.9214	524.7553	-36.6148	192.5946	19.2396	465.8648	-0.0592	0.0182	-0.0073	-0.0462	0.0165	0.9585
17.5721	-31.2388	402.0644	17.8811	-156.2117	-32.1724	446.3645	31.4846	476.6701	-32.2135	174.8272	15.6154	422.0605	-0.0592	0.0182	-0.0073	-0.0462	0.0165	0.9585
17.5842	-29.9881	418.5582	23.1422	-162.3976	-37.4279	462.1502	30.8316	426.8524	-27.9557	156.4645	12.2222	377.0211	-0.0592	0.0182	-0.0073	-0.0462	0.0165	0.9585
17.5963	-27.2876	434.9895	26.6741	-168.7	-40.2177	477.4187	29.9399	376.8458	-23.8524	138.073	9.0708	332.0756	-0.0592	0.0182	-0.0073	-0.0462	0.0165	0.9585
17.6084	-23.8587	452.9938	28.6893	-175.7373	-41.0394	494.0508	28.6776	328.0039	-19.9155	120.145	6.2135	288.4205	-0.0592	0.0182	-0.0073	-0.0462	0.0165	0.9585
17.6204	-20.1896	473.7023	29.447	-183.9145	-40.4008	513.3108	26.9283	281.4388	-16.1794	103.0851	3.7185	247.0121	-0.0592	0.0182	-0.0073	-0.0462	0.0165	0.9585
17.6325	-16.6608	497.7889	29.6599	-193.4264	-39.1966	536.006	24.5939	238.1021	-12.7637	87.2265	1.717	208.6762	-0.0592	0.0182	-0.0073	-0.0462	0.0165	0.9585
17.6446	-13.4887	525.2674	29.9007	-204.2284	-38.128	562.1321	21.6998	198.6981	-9.8177	72.8158	0.32401	173.9705	-0.0592	0.0182	-0.0073	-0.0462	0.0165	0.9585
17.6566	-10.9319	555.519	30.8558	-216.0294	-38.0015	591.0596	18.3125	163.7322	-7.4751	60.0232	-0.37972	143.3034	-0.0592	0.0182	-0.0073	-0.0462	0.0165	0.9585
17.6687	-9.1726	587.6747	32.8535	-228.4685	-39.2342	621.832	14.6331	133.4091	-5.7848	48.9181	-0.425	116.7698	-0.0592	0.0182	-0.0073	-0.0462	0.0165	0.9585
17.6808	-8.3035	620.9915	35.8649	-241.2544	-41.8221	653.6498	10.8353	107.6418	-4.6896	39.4646	0.069892	94.255	-0.0592	0.0182	-0.0073	-0.0462	0.0165	0.9585
17.6929	-8.1816	654.7851	39.4953	-254.1433	-45.309	685.7692	7.1613	85.9977	-4.0438	31.5119	0.89764	75.3292	-0.0592	0.0182	-0.0073	-0.0462	0.0165	0.9585
17.7049	-8.6178	688.208	43.2773	-266.8294	-49.1347	717.2814	3.7688	67.8918	-3.6621	24.8515	1.8385	59.4894	-0.0592	0.0182	-0.0073	-0.0462	0.0165	0.9585
17.717	-9.3815	720.1477	46.9463	-278.8948	-52.9269	747.0156	0.84999	52.6799	-3.3745	19.2578	2.6794	46.1667	-0.0592	0.0182	-0.0073	-0.0462	0.0165	0.9585
17.7291	-10.2497	749.3928	50.3493	-289.8723	-56.4364	773.7421	-1.4636	39.8439	-3.0605	14.5445	3.2656	34.9469	-0.0592	0.0182	-0.0073	-0.0462	0.0165	0.9585
17.7411	-11.0609	774.7965	53.5016	-299.3147	-59.6122	796.3231	-3.0301	29.0063	-2.6445	10.5786	3.4865	25.4993	-0.0592	0.0182	-0.0073	-0.0462	0.0165	0.9585
17.7532	-11.7036	795.4664	56.3158	-306.8838	-62.3291	813.8702	-3.8114	20.0022	-2.1231	7.2966	3.3285	17.694	-0.0592	0.0182	-0.0073	-0.0462	0.0165	0.9585
17.7653	-12.0183	810.8616	58.7594	-312.379	-64.5093	825.8841	-3.825	12.7871	-1.5493	4.6781	2.8499	11.4699	-0.0592	0.0182	-0.0073	-0.0462	0.0165	0.9585
17.7774	-11.8889	820.7587	60.7128	-315.731	-65.998	832.177	-3.2985	7.3955	-1.0034	2.7273	2.1987	6.8533	-0.0592	0.0182	-0.0073	-0.0462	0.0165	0.9585
17.7894	-11.2327	825.2141	62.1792	-316.9712	-66.7746	832.8467	-2.5543	3.7416	-0.54709	1.406	1.5381	3.7572	-0.0592	0.0182	-0.0073	-0.0462	0.0165	0.9585
17.8015	-10.0047	824.5145	63.134	-316.2209	-66.8041	828.2333	-1.7949	1.5446	-0.20211	0.60878	0.95819	1.9252	-0.0592	0.0182	-0.0073	-0.0462	0.0165	0.9585
17.8136	-8.2274	819.2229	63.6292	-313.7039	-66.153	818.965	-1.1456	0.44473	0.04141	0.20423	0.49737	1.0374	-0.0592	0.0182	-0.0073	-0.0462	0.0165	0.9585
17.8256	-5.9974	810.1296	63.685	-309.7342	-64.8789	805.8932	-0.63782	0.098596	0.19472	0.068775	0.16356	0.78311	-0.0592	0.0182	-0.0073	-0.0462	0.0165	0.9585
17.8377	-3.4482	798.1827	63.3797	-304.6774	-63.1163	790.0513	-0.28766	0.23064	0.27945	0.1038	-0.057396	0.94288	-0.0592	0.0182	-0.0073	-0.0462	0.0165	0.9585
17.8498	-0.77582	784.4045	62.8002	-298.9254	-61.0246	772.5115	-0.058378	0.60515	0.31831	0.22974	-0.19575	1.3136	-0.0592	0.0182	-0.0073	-0.0462	0.0165	0.9585
17.8619	1.8227	769.8668	62.0248	-292.886	-58.7609	754.3744	0.064719	1.0834	0.32261	0.39839	-0.26536	1.7823	-0.0592	0.0182	-0.0073	-0.0462	0.0165	0.9585
17.8739	4.2032	755.6502	61.1061	-286.9714	-56.4355	736.7123	0.12082	1.5491	0.30193	0.57228	-0.28451	2.2274	-0.0592	0.0182	-0.0073	-0.0462	0.0165	0.9585
17.886	6.285	742.7692	60.0487	-281.5696	-54.0936	720.4893	0.11839	1.9548	0.26606	0.73259	-0.26413	2.6205	-0.0592	0.0182	-0.0073	-0.0462	0.0165	0.9585
17.8981	8.036	731.9885	58.8907	-276.979	-51.7857	706.4024	0.089649	2.2558	0.22032	0.86172	-0.21889	2.9037	-0.0592	0.0182	-0.0073	-0.0462	0.0165	0.9585
17.9101	9.5215	723.8032	57.6405	-273.3907	-49.5042	694.8757	0.022119	2.4342	0.1719	0.94751	-0.15362	3.0575	-0.0592	0.0182	-0.0073	-0.0462	0.0165	0.9585
17.9222	10.8227	718.3934	56.3738	-270.8731	-47.2918	686.0267	-0.06378	2.4485	0.11709	0.97314	-0.069504	3.0203	-0.0592	0.0182	-0.0073	-0.0462	0.0165	0.9585
17.9343	12.054	715.691	55.1133	-269.3969	-45.1341	679.7347	-0.1851	2.2586	0.059105	0.91886	0.033414	2.7583	-0.0592	0.0182	-0.0073	-0.0462	0.0165	0.9585
17.9464	13.3385	715.4256	53.9456	-268.8482	-43.0723	675.6974	-0.32976	1.7856	-0.0040053	0.7536	0.15077	2.1745	-0.0592	0.0182	-0.0073	-0.0462	0.0165	0.9585
17.9584	14.7697	717.1724	52.8828	-269.0517	-41.0874	673.4742	-0.50529	0.95929	-0.063986	0.44593	0.27095	1.1955	-0.0592	0.0182	-0.0073	-0.0462	0.0165	0.9585
17.9705	16.4151	720.3834	52.0004	-269.783	-39.2221	672.5337	-0.6685	-0.3016	-0.11633	-0.03788	0.37615	-0.28099	-0.0592	0.0182	-0.0073	-0.0462	0.0165	0.9585
17.9826	18.3299	724.4673	51.3067	-270.7988	-37.4617	672.3343	-0.79234	-2.0353	-0.15132	-0.71616	0.4468	-2.3006	-0.0592	0.0182	-0.0073	-0.0462	0.0165	0.9585
